<?xml version="1.0" standalone="no"?>
<!DOCTYPE svg PUBLIC "-//W3C//DTD SVG 20010904//EN"
 "http://www.w3.org/TR/2001/REC-SVG-20010904/DTD/svg10.dtd">
<svg version="1.0" xmlns="http://www.w3.org/2000/svg"
 width="260.000000pt" height="260.000000pt" viewBox="0 0 260.000000 260.000000"
 preserveAspectRatio="xMidYMid meet">
<metadata>
Created by potrace 1.11, written by Peter Selinger 2001-2013
</metadata>
<g transform="translate(0.000000,260.000000) scale(0.100000,-0.100000)"
fill="#000000" stroke="none">
<path d="M1801 1964 c-19 -8 -41 -12 -48 -10 -14 6 -46 -22 -38 -34 3 -4 -18
-6 -45 -3 -47 4 -50 3 -56 -22 -5 -20 -11 -25 -25 -22 -11 3 -19 1 -19 -5 0
-5 -10 -6 -21 -3 -14 5 -19 4 -15 -4 5 -7 1 -9 -8 -5 -22 8 -20 -12 2 -21 25
-12 41 -14 41 -7 -4 30 3 35 20 13 21 -27 42 -21 36 10 -4 17 -2 19 10 9 15
-12 37 -3 57 25 5 7 8 7 8 0 0 -5 4 -4 9 4 6 10 25 14 59 12 57 -2 82 15 82
55 0 28 -3 28 -49 8z m-132 -90 c-6 -7 -15 -11 -20 -8 -5 3 -3 11 4 18 16 18
31 8 16 -10z"/>
<path d="M810 1960 c-13 -9 -12 -12 4 -25 19 -14 18 -15 -11 -15 -18 0 -34 -4
-37 -8 -2 -4 -19 -9 -38 -10 -41 -3 -109 -48 -101 -68 6 -17 -1 -17 64 3 35
10 93 16 165 17 l111 1 59 -40 c62 -42 93 -72 94 -91 0 -7 -7 -25 -15 -40 -8
-16 -15 -24 -15 -19 0 11 -60 48 -67 42 -2 -3 9 -18 25 -34 33 -32 86 -42 116
-20 14 11 20 29 22 75 1 36 -2 60 -7 56 -5 -3 -9 4 -9 16 0 13 9 24 25 30 14
5 25 17 25 27 -1 16 -2 16 -13 2 -14 -18 -64 -38 -53 -21 4 6 -24 22 -69 39
-41 15 -75 34 -75 40 0 15 -42 27 -67 19 -11 -3 -38 3 -61 14 -47 23 -51 23
-72 10z m350 -164 c0 -3 -4 -8 -10 -11 -5 -3 -10 -1 -10 4 0 6 5 11 10 11 6 0
10 -2 10 -4z"/>
<path d="M1470 1856 c0 -2 8 -10 18 -17 15 -13 16 -12 3 4 -13 16 -21 21 -21
13z"/>
<path d="M729 1712 c-39 -20 -58 -38 -76 -71 -12 -24 -28 -51 -35 -59 -11 -12
-10 -14 0 -11 8 3 30 29 50 59 28 41 51 61 92 82 30 15 48 28 39 28 -9 0 -41
-12 -70 -28z"/>
<path d="M1522 1723 c-1 -10 -3 -27 -6 -38 -4 -23 10 -55 24 -55 10 0 80 47
125 84 l30 24 -42 -11 c-27 -7 -38 -14 -30 -19 8 -5 4 -8 -10 -8 -13 0 -22 -4
-20 -9 1 -5 -2 -9 -8 -10 -5 0 -10 5 -10 13 0 18 -24 46 -39 46 -7 0 -13 -8
-14 -17z"/>
<path d="M1717 1666 c-77 -26 -106 -46 -67 -46 13 0 44 8 69 17 43 17 44 16
62 -6 23 -28 48 -33 132 -25 77 7 85 20 34 58 -45 35 -133 35 -230 2z"/>
<path d="M538 1645 c2 -15 -6 -36 -23 -59 l-27 -36 28 0 c38 0 51 10 59 43 4
16 14 31 21 34 15 5 19 32 7 34 -5 1 -22 3 -39 4 -27 3 -30 1 -26 -20z"/>
<path d="M832 1655 c-18 -8 -35 -14 -37 -15 -3 0 -6 0 -7 -1 -2 0 -11 -2 -21
-4 -33 -6 -105 -46 -111 -62 -5 -11 -2 -13 11 -8 10 4 38 9 63 12 25 2 58 9
73 15 21 8 34 8 53 -3 20 -10 39 -11 92 -2 37 6 82 9 100 6 47 -8 42 5 -22 55
-23 18 -41 22 -95 22 -36 -1 -81 -7 -99 -15z"/>
<path d="M1147 1304 c-13 -13 -7 -23 13 -21 11 1 19 6 17 11 -4 13 -21 18 -30
10z"/>
<path d="M1620 1265 c7 -8 17 -15 22 -15 6 0 5 7 -2 15 -7 8 -17 15 -22 15 -6
0 -5 -7 2 -15z"/>
<path d="M1233 1243 c-10 -10 -25 -33 -32 -50 -8 -18 -20 -33 -27 -33 -8 0
-14 -5 -14 -11 0 -6 -6 -9 -12 -7 -8 3 -12 18 -10 41 3 30 1 35 -15 31 -10 -3
-27 -24 -38 -47 -11 -23 -33 -56 -48 -74 -16 -18 -26 -37 -22 -43 5 -9 -7 -14
-27 -11 -4 0 -6 -8 -5 -19 1 -10 5 -16 9 -14 11 7 5 -26 -10 -53 -23 -42 -12
-36 23 13 19 27 35 53 35 58 0 13 49 56 63 56 7 0 21 -7 31 -15 25 -19 110
-19 139 -1 14 9 49 13 100 12 42 0 77 2 77 7 0 11 47 9 90 -4 95 -29 120 23
48 97 -24 24 -48 44 -55 44 -7 0 -24 -12 -38 -27 -25 -27 -34 -18 -16 16 9 15
1 17 -77 20 -54 1 -93 8 -106 17 -27 18 -39 18 -63 -3z"/>
<path d="M1661 1177 c-1 -28 8 -50 32 -82 28 -39 62 -64 72 -53 7 7 -35 85
-63 115 -17 18 -32 38 -35 45 -3 7 -6 -4 -6 -25z"/>
<path d="M1311 833 c-37 -13 -92 -44 -111 -63 -3 -3 -20 -18 -39 -34 -31 -25
-91 -107 -91 -123 0 -4 -9 -17 -21 -29 -29 -31 -16 -45 39 -43 34 2 53 9 69
26 12 13 29 23 38 23 9 0 24 9 34 21 26 32 85 49 198 56 85 5 108 3 140 -12
21 -9 43 -22 48 -29 32 -36 77 -56 125 -56 65 0 65 11 -4 97 -61 75 -129 133
-159 133 -13 0 -17 5 -14 14 10 25 -58 40 -120 26 -18 -5 -33 -5 -33 -1 0 12
-56 9 -99 -6z"/>
<path d="M20 195 c-7 -9 -15 -38 -18 -66 -4 -43 -2 -49 12 -43 9 3 16 1 16 -5
0 -6 -7 -11 -15 -11 -10 0 -15 -11 -15 -35 l0 -35 115 0 c111 0 115 1 115 21
0 19 -4 21 -39 15 -34 -5 -42 -3 -59 19 -18 23 -22 24 -36 9 -9 -8 -16 -20
-16 -25 0 -6 -5 -7 -11 -3 -8 4 -8 9 -1 13 6 4 9 15 8 26 -2 11 2 26 8 34 8
11 8 13 -1 7 -9 -5 -11 -2 -7 8 4 11 0 16 -10 16 -9 0 -16 -7 -16 -15 0 -9 -6
-12 -15 -9 -8 4 -13 10 -10 14 3 5 1 11 -5 15 -6 4 -4 17 5 36 17 32 15 38 -5
14z m130 -176 c0 -5 -4 -9 -10 -9 -5 0 -10 7 -10 16 0 8 5 12 10 9 6 -3 10
-10 10 -16z"/>
<path d="M110 131 c0 -6 4 -13 10 -16 6 -3 7 1 4 9 -7 18 -14 21 -14 7z"/>
<path d="M289 58 c-9 -31 -7 -47 5 -42 8 3 12 14 9 25 -5 16 -11 25 -14 17z"/>
</g>
</svg>
